<?xml version="1.0" standalone="no"?>
<!DOCTYPE svg PUBLIC "-//W3C//DTD SVG 20010904//EN"
 "http://www.w3.org/TR/2001/REC-SVG-20010904/DTD/svg10.dtd">
<svg version="1.0" xmlns="http://www.w3.org/2000/svg"
 width="1886.000000pt" height="1060.000000pt" viewBox="0 0 1886.000000 1060.000000"
 preserveAspectRatio="xMidYMid meet">
<metadata>
Created by potrace 1.16, written by Peter Selinger 2001-2019
</metadata>
<g transform="translate(0.000000,1060.000000) scale(0.100000,-0.100000)"
fill="#000000" stroke="none">
<path d="M0 5300 l0 -5300 9430 0 9430 0 0 5300 0 5300 -4329 0 c-3938 0
-4329 -1 -4335 -16 -8 -21 -8 -21 14 -27 31 -8 37 -37 11 -56 -19 -14 -21 -23
-15 -59 5 -34 4 -42 -9 -42 -9 0 -21 -8 -26 -17 -10 -17 -12 -17 -25 0 -11 14
-22 17 -44 12 -25 -5 -30 -3 -35 17 -10 38 21 128 48 138 32 12 38 26 17 36
-9 5 -2293 10 -5074 12 l-5058 2 0 -5300z m10355 4996 c9 4 16 0 16 -7 5 -53
-30 -109 -66 -109 -36 0 -75 18 -75 34 0 9 -6 13 -14 10 -8 -3 -19 6 -28 24
-14 27 -14 29 11 40 14 6 36 9 48 6 37 -10 73 3 66 24 -4 12 0 10 11 -5 10
-13 23 -20 31 -17z m6777 -1466 c15 -26 15 -32 1 -62 -18 -39 -70 -75 -87 -58
-5 5 -18 10 -27 10 -10 0 -27 15 -39 34 -19 32 -20 37 -6 69 20 49 60 67 106
49 19 -7 43 -26 52 -42z m-7858 -16 c9 -3 16 -12 16 -20 0 -24 24 -94 33 -94
4 0 16 -20 27 -45 13 -31 27 -46 44 -51 14 -3 28 -15 31 -25 4 -10 12 -19 18
-20 7 -1 19 -2 27 -3 8 -2 23 -3 33 -4 9 -1 17 -8 17 -16 0 -8 17 -21 38 -29
46 -18 89 -60 107 -104 8 -18 20 -33 28 -33 24 0 127 -82 127 -101 0 -10 18
-53 40 -96 43 -83 48 -121 26 -174 -19 -46 -10 -102 15 -96 21 6 99 -65 99
-89 0 -20 42 -34 84 -27 56 9 84 -3 104 -45 22 -48 44 -51 88 -13 40 36 35 34
71 20 15 -6 56 -12 90 -13 42 -1 68 -7 81 -19 15 -13 30 -16 63 -12 34 4 39 3
22 -4 -29 -13 -20 -39 15 -43 31 -4 64 -58 59 -99 -3 -25 13 -49 31 -49 5 0
15 -7 22 -15 9 -11 17 -12 31 -4 16 8 24 5 45 -18 17 -19 27 -24 31 -15 2 6
11 12 18 12 7 0 18 14 24 31 9 26 14 30 33 24 13 -3 41 -8 63 -11 89 -9 131
-26 146 -59 2 -5 12 -8 22 -7 10 2 24 -1 30 -6 14 -12 96 6 120 26 9 8 25 11
36 7 12 -3 24 0 33 10 36 44 50 55 87 65 22 6 43 15 46 20 8 14 52 13 61 -1 4
-7 24 -9 50 -6 31 3 50 -1 71 -14 50 -33 105 -24 129 22 17 33 32 36 81 12 28
-13 39 -14 54 -5 25 16 48 5 55 -25 5 -17 10 -21 17 -14 6 6 29 10 51 9 41 -1
41 -1 6 -5 -19 -3 -39 -9 -44 -14 -18 -16 -35 -10 -42 16 -7 28 -15 30 -42 14
-14 -9 -27 -7 -59 10 l-41 20 -26 -34 c-33 -43 -98 -57 -141 -29 -16 10 -48
18 -78 19 -29 1 -59 5 -68 9 -10 4 -25 -1 -40 -14 l-24 -20 40 -35 c22 -19 47
-35 56 -35 9 0 19 -6 22 -14 6 -15 61 -46 86 -47 11 0 12 -2 3 -6 -10 -4 -9
-10 5 -26 22 -25 0 -15 -34 16 -24 22 -51 38 -99 60 -17 8 -47 31 -67 51 -44
44 -61 45 -84 6 -16 -28 -23 -32 -65 -35 -9 0 -25 -8 -35 -16 -10 -9 -25 -17
-33 -17 -8 -1 -48 -3 -89 -6 l-73 -5 -11 29 c-13 35 -42 47 -122 52 -58 4 -61
3 -81 -27 -18 -28 -19 -34 -7 -50 7 -11 10 -27 7 -37 -3 -11 2 -31 11 -46 17
-26 17 -26 0 -10 -10 9 -21 33 -24 54 -7 43 -22 52 -45 29 -18 -18 -88 -13
-141 10 -47 20 -75 27 -75 18 0 -4 -29 -9 -65 -10 -35 -1 -74 -7 -85 -13 -12
-6 -33 -9 -48 -6 -15 2 -44 7 -64 11 -24 4 -38 11 -38 20 0 15 -12 20 -23 9
-7 -8 11 -46 27 -56 6 -4 11 -27 11 -52 1 -42 24 -86 46 -86 17 0 59 -44 59
-62 0 -10 9 -28 20 -40 11 -12 20 -29 20 -38 0 -9 10 -25 21 -36 19 -17 21
-25 14 -84 -4 -36 -7 -74 -6 -85 1 -11 1 -41 1 -67 -1 -25 4 -49 10 -53 5 -3
10 -15 10 -25 0 -10 10 -26 23 -34 12 -9 27 -33 33 -54 8 -26 17 -38 32 -40
12 -2 22 -7 22 -11 0 -5 22 -11 48 -15 33 -4 55 -14 69 -30 12 -13 35 -27 52
-31 17 -4 33 -15 36 -26 4 -10 12 -19 19 -19 8 0 19 -7 26 -15 7 -9 25 -15 39
-14 53 4 68 -1 82 -30 34 -71 75 -130 91 -134 10 -3 18 -14 18 -26 0 -16 6
-21 27 -21 15 0 36 -9 47 -19 20 -19 24 -19 85 -5 74 17 92 14 90 -18 l-2 -23
-4 23 c-5 26 -9 26 -92 7 -62 -15 -65 -15 -86 5 -16 15 -29 19 -49 14 -22 -5
-26 -3 -26 15 0 11 -17 39 -38 60 -21 22 -49 60 -63 85 -25 47 -45 58 -89 49
-19 -3 -29 0 -33 11 -4 9 -15 16 -25 16 -10 0 -24 11 -30 25 -13 29 -45 36
-35 8 7 -19 -39 25 -54 51 -4 8 -35 19 -68 25 -33 5 -68 12 -77 16 -13 5 -18
2 -19 -11 0 -11 -2 -50 -5 -89 -3 -66 -2 -71 24 -94 15 -13 43 -30 62 -38 19
-8 43 -22 53 -31 15 -14 17 -13 18 4 1 18 14 -14 24 -60 4 -16 67 -78 101 -98
6 -5 24 -29 40 -55 15 -27 33 -51 40 -56 20 -12 36 -74 39 -153 2 -47 9 -83
19 -99 9 -13 16 -33 16 -43 0 -20 24 -45 52 -55 11 -4 19 1 23 14 4 11 9 18
12 16 2 -3 0 -14 -6 -24 -13 -25 17 -53 55 -53 14 0 42 -10 64 -22 l38 -22 20
24 c16 19 23 22 34 13 20 -17 155 -5 175 15 8 8 24 17 36 19 139 23 140 23
187 79 24 30 52 54 61 54 10 0 20 11 23 26 4 15 9 24 12 22 10 -11 -17 -58
-33 -59 -17 0 -83 -79 -83 -99 0 -6 14 -10 30 -10 17 0 39 -6 50 -12 14 -9 22
-10 31 -1 8 8 20 1 46 -25 31 -31 43 -36 92 -39 31 -1 57 -7 59 -13 2 -6 14
-20 26 -31 18 -18 29 -20 81 -14 57 6 62 4 83 -20 20 -23 29 -26 60 -21 38 7
28 -5 -15 -18 -17 -5 -28 -1 -45 19 -21 24 -27 26 -83 20 -58 -6 -61 -5 -95
27 -19 18 -41 31 -48 30 -8 -2 -20 2 -28 9 -11 9 -18 9 -26 1 -17 -17 -21 -16
-61 23 -22 21 -42 33 -51 29 -8 -3 -25 1 -38 10 -43 31 -223 10 -272 -31 -21
-18 -36 -22 -57 -18 -15 4 -45 2 -65 -4 -27 -8 -41 -7 -52 1 -10 9 -16 8 -23
-3 -14 -22 -12 -24 34 -46 104 -50 126 -64 132 -82 4 -14 19 -20 60 -24 30 -3
67 -12 82 -21 27 -15 157 -47 198 -49 11 0 43 3 70 7 44 6 54 4 75 -14 40 -35
69 -41 152 -34 73 6 79 5 108 -20 17 -14 38 -26 45 -26 8 0 30 -14 50 -31 33
-30 84 -48 132 -49 25 0 68 39 78 70 4 12 9 19 12 17 8 -9 -26 -65 -52 -86
l-26 -20 30 -16 c17 -8 31 -22 31 -31 0 -8 6 -17 14 -20 7 -3 22 -20 32 -39
19 -37 36 -48 104 -70 l45 -15 -44 5 c-54 7 -98 29 -106 55 -3 11 -16 27 -29
37 -12 10 -25 26 -29 36 -3 9 -23 24 -44 33 -21 9 -46 20 -55 25 -10 5 -27 9
-38 9 -12 0 -37 16 -57 35 -20 19 -42 35 -50 35 -8 0 -31 11 -51 25 -39 27
-81 32 -114 14 -26 -14 -99 3 -141 33 -27 20 -34 20 -95 9 -45 -8 -68 -9 -75
-2 -6 6 -21 11 -34 11 -33 0 -114 20 -145 37 -15 7 -45 15 -68 18 -57 5 -78
14 -85 33 -5 18 -144 92 -171 92 -9 0 -55 18 -101 41 -92 45 -173 115 -173
151 0 12 -12 35 -27 50 -24 25 -26 31 -15 49 9 13 10 40 6 86 -6 54 -12 72
-36 96 -15 17 -31 27 -34 24 -10 -9 -12 -114 -3 -128 4 -7 3 -19 -3 -26 -8
-10 -7 -18 4 -31 21 -24 28 -47 18 -62 -5 -8 0 -25 11 -44 10 -17 23 -41 29
-53 5 -13 14 -23 19 -23 5 0 11 -19 14 -42 3 -31 0 -50 -13 -69 -16 -22 -17
-33 -8 -68 10 -38 8 -44 -12 -66 -13 -14 -30 -25 -37 -25 -17 0 -53 -58 -53
-85 0 -11 7 -31 15 -45 8 -14 19 -35 24 -48 8 -17 18 -22 38 -20 21 2 30 -3
38 -19 5 -13 16 -23 23 -23 8 0 12 -15 11 -48 -1 -31 4 -57 15 -74 14 -22 16
-37 8 -91 -6 -49 -5 -69 5 -83 7 -10 12 -36 11 -59 0 -22 4 -51 11 -63 10 -18
9 -29 -3 -54 -9 -17 -16 -32 -16 -34 0 -2 16 -20 36 -40 39 -39 98 -69 127
-65 18 2 19 0 21 -66 1 -23 -1 -40 -6 -37 -4 3 -8 20 -8 39 0 35 -19 50 -88
70 -12 4 -30 17 -38 31 -9 13 -23 24 -30 24 -8 0 -20 11 -26 26 -9 20 -9 30 4
52 14 24 15 31 2 61 -8 18 -11 44 -8 57 4 15 0 34 -10 49 -12 18 -15 40 -11
94 3 39 1 72 -4 76 -5 3 -16 19 -25 35 -8 17 -11 28 -6 25 5 -3 12 6 16 21 5
19 2 31 -10 39 -9 7 -16 17 -16 24 0 6 -12 11 -26 11 -19 0 -25 -4 -20 -15 11
-30 -4 -14 -21 23 -23 50 -43 65 -60 43 -7 -9 -13 -11 -13 -4 0 6 7 19 16 27
8 9 11 16 5 16 -28 0 4 142 33 146 30 4 66 34 66 53 0 28 -11 52 -21 46 -4 -3
-5 -13 -2 -22 4 -11 3 -14 -5 -9 -19 12 -14 29 18 64 37 41 39 81 6 125 -38
51 -58 96 -51 118 4 13 0 27 -10 39 -9 10 -15 29 -13 43 1 13 -3 32 -11 41 -9
11 -10 20 -4 29 6 6 14 45 17 86 l7 73 -33 29 c-18 16 -45 36 -60 44 -17 9
-31 28 -36 48 -5 19 -20 39 -38 50 -16 10 -57 36 -92 58 l-63 39 5 98 c3 53 8
112 12 130 8 40 -14 61 -63 62 -24 0 -38 -8 -57 -32 l-25 -32 24 -32 c19 -25
23 -40 19 -63 -4 -17 -11 -34 -15 -37 -5 -3 -9 -32 -9 -65 0 -68 -10 -92 -51
-127 -16 -13 -29 -33 -29 -44 0 -11 -8 -22 -19 -25 -11 -3 -23 -21 -30 -45
-11 -36 -10 -42 8 -62 19 -20 19 -24 5 -44 -13 -19 -13 -23 0 -28 21 -8 28
-34 15 -50 -7 -9 -10 -33 -6 -63 4 -33 1 -55 -8 -68 -12 -18 -12 -29 1 -82 13
-51 14 -65 2 -91 -7 -16 -16 -30 -20 -30 -5 0 -8 -6 -8 -14 0 -8 -16 -28 -35
-45 -40 -34 -42 -46 -18 -95 15 -33 15 -37 -1 -55 -26 -28 -12 -69 28 -79 49
-13 48 -50 -3 -94 -33 -28 -41 -42 -45 -81 -5 -39 -3 -49 11 -54 25 -9 33 -23
33 -58 0 -17 4 -35 9 -40 5 -6 11 -34 14 -63 6 -48 4 -55 -23 -86 -17 -18 -30
-37 -30 -40 0 -4 11 -17 25 -30 22 -21 23 -24 10 -50 -8 -16 -15 -40 -16 -55
0 -14 -5 -35 -10 -46 -6 -13 -7 -4 -3 30 4 28 11 58 16 68 7 14 5 24 -11 41
-28 29 -26 62 4 97 20 25 23 34 14 56 -5 14 -7 34 -4 43 3 10 1 21 -5 25 -5 3
-10 19 -10 34 0 16 -11 40 -26 56 -22 24 -25 34 -20 78 4 42 11 56 40 83 40
37 47 64 16 64 -14 0 -27 14 -42 45 -20 42 -21 45 -5 63 15 17 16 23 3 64 -13
46 -13 46 20 85 28 33 31 39 16 44 -9 4 -23 3 -31 -1 -8 -4 -31 -5 -51 -3 -32
5 -40 1 -59 -25 -11 -17 -21 -36 -21 -44 -1 -16 -30 -56 -30 -41 0 7 5 15 10
18 6 3 10 16 10 28 1 12 11 34 23 49 20 24 30 27 101 31 74 5 80 7 97 34 16
25 17 32 5 54 -23 44 -28 93 -12 114 10 13 13 33 10 55 -3 19 -1 47 5 63 9 23
7 31 -9 47 -16 16 -18 25 -10 39 7 15 6 27 -7 49 -15 26 -15 34 -4 55 7 14 11
30 7 35 -3 5 5 17 19 26 14 9 25 22 25 29 0 7 16 29 36 48 45 43 60 69 40 69
-23 0 -98 -84 -131 -147 -24 -45 -40 -62 -72 -78 -44 -21 -53 -33 -73 -102
-10 -32 -20 -44 -41 -52 -16 -5 -29 -14 -29 -19 0 -5 -23 -19 -51 -32 -29 -12
-53 -30 -56 -40 -7 -28 -36 -35 -52 -13 -14 18 -15 18 -37 -2 -12 -11 -32 -28
-45 -37 -22 -16 -23 -19 -7 -31 14 -11 16 -27 12 -97 -2 -46 -8 -86 -13 -89
-16 -12 -32 -53 -26 -69 5 -13 3 -14 -5 -5 -14 13 -5 69 13 80 7 5 13 22 14
38 7 106 6 115 -12 135 -14 16 -16 23 -7 32 16 16 15 28 -2 28 -7 0 -19 7 -26
15 -14 17 -50 20 -50 4 0 -14 -21 -34 -37 -35 -30 -2 -33 -5 -33 -31 0 -16 -5
-35 -10 -43 -8 -12 -10 -10 -10 10 0 45 12 70 36 76 13 3 24 12 24 19 0 16 6
20 42 29 17 4 32 1 42 -9 8 -8 28 -15 44 -15 27 0 30 3 35 42 3 23 1 50 -4 61
-14 24 -2 94 17 101 8 3 21 3 30 -1 12 -4 14 0 9 18 -3 13 -7 38 -8 56 -1 17
-5 29 -9 27 -9 -6 -88 43 -88 54 0 5 3 12 6 15 14 14 13 78 -1 84 -16 6 -20
29 -6 35 5 2 6 17 4 35 -4 22 -16 39 -39 55 -32 21 -35 26 -32 70 1 26 -1 51
-5 54 -4 4 -7 18 -7 31 0 12 -4 23 -10 23 -5 0 -12 11 -16 25 -3 14 -12 25
-19 25 -7 0 -16 10 -19 23 l-6 22 -21 -25 c-17 -20 -18 -26 -7 -35 20 -14 39
-73 27 -81 -6 -3 -6 -11 -1 -17 12 -16 13 -55 1 -62 -5 -4 -7 -11 -3 -16 3 -5
0 -16 -6 -24 -7 -8 -9 -28 -6 -47 l7 -33 -16 28 c-9 15 -20 27 -25 27 -12 0
-1 -30 17 -49 8 -7 11 -16 7 -20 -4 -3 -9 0 -11 7 -3 6 -19 13 -36 13 -18 1
-24 3 -14 6 9 2 17 11 17 19 0 8 -8 14 -17 14 -17 1 -17 1 0 11 20 12 22 42 3
58 -10 9 -19 4 -38 -21 -14 -18 -28 -46 -31 -63 -3 -16 -8 -47 -13 -69 -5 -28
-3 -40 7 -47 10 -6 14 -30 14 -81 1 -40 4 -90 9 -111 5 -24 4 -42 -2 -50 -18
-22 -5 -108 19 -125 15 -11 19 -21 14 -40 -4 -15 -1 -28 6 -33 7 -4 13 -26 14
-48 1 -27 8 -48 23 -64 l22 -24 -20 -18 c-11 -10 -23 -15 -28 -11 -4 4 2 14
12 22 19 13 18 14 -7 40 -20 20 -24 30 -17 44 7 13 4 25 -11 43 -13 18 -18 34
-13 51 4 18 1 26 -14 30 -23 8 -32 44 -25 101 3 22 5 51 4 65 0 14 -2 60 -4
103 -2 53 -8 82 -19 93 -13 13 -13 25 -2 91 8 42 20 83 29 93 8 9 15 21 15 27
0 6 5 13 10 15 6 2 12 22 13 45 1 29 6 43 17 46 10 2 5 8 -14 17 -28 14 -56
70 -35 70 5 0 9 5 9 10 0 6 -5 10 -10 10 -17 0 -70 -43 -70 -57 0 -7 -10 -18
-22 -24 -28 -14 -72 -59 -80 -81 -4 -8 -27 -25 -52 -38 -57 -27 -60 -32 -41
-70 17 -33 7 -42 -13 -10 -15 25 -34 17 -91 -39 -46 -45 -59 -86 -60 -185 0
-38 -2 -71 -5 -73 -3 -3 -5 33 -5 80 1 99 18 168 45 182 10 6 32 22 48 38 16
15 32 27 36 27 4 0 12 12 19 26 9 21 9 25 -1 22 -7 -3 -22 -1 -33 4 -19 8 -19
8 1 5 17 -4 23 3 33 42 7 25 24 61 38 79 22 29 25 40 19 80 -3 25 -13 53 -21
62 -20 22 -20 25 17 76 27 38 30 47 18 56 -12 8 -12 9 2 4 15 -4 17 1 16 32
-1 47 8 104 28 173 9 30 16 69 17 86 1 18 5 33 10 33 4 0 7 23 7 50 0 46 -2
50 -24 50 -14 0 -28 -4 -31 -10 -3 -5 -18 -9 -33 -9 -21 1 -22 2 -7 6 11 3 24
9 29 14 6 5 17 9 26 9 15 0 15 5 -3 58 -13 40 -18 72 -14 109 5 50 5 52 -21
55 -22 2 -30 11 -40 43 -7 21 -15 41 -17 43 -2 2 -20 -13 -40 -34 -36 -36 -38
-37 -51 -19 -9 12 -14 14 -14 5 0 -19 -101 -114 -139 -129 -29 -12 -34 -11
-69 13 -45 31 -84 33 -109 7 -20 -21 -49 -108 -40 -118 11 -10 -13 -43 -32
-43 -39 0 -66 -122 -47 -215 5 -29 5 -36 -3 -25 -6 8 -11 27 -11 42 0 34 -16
44 -39 24 -10 -9 -24 -16 -32 -16 -26 0 -66 -23 -75 -44 -5 -11 -15 -22 -23
-24 -26 -8 25 53 56 67 96 45 93 42 93 80 0 20 9 54 20 76 11 22 20 43 20 48
0 4 10 18 23 30 12 12 28 36 36 52 36 78 47 96 64 101 29 9 108 -6 114 -22 7
-19 43 -17 76 5 41 27 86 83 87 107 0 17 7 23 34 26 24 3 32 0 29 -9 -3 -7 -1
-13 4 -13 12 0 73 95 73 114 0 20 18 30 33 18 17 -13 77 -21 83 -10 3 5 0 15
-6 23 -13 15 -12 16 40 20 9 0 35 11 58 23 24 12 48 19 54 16 7 -4 8 4 3 25
-4 18 -2 37 3 44 5 7 15 39 22 72 14 68 33 95 66 95 21 0 23 5 29 98 4 53 12
103 17 109 7 8 6 30 -3 64 -12 45 -18 54 -49 66 -19 8 -42 21 -50 28 -8 7 -27
15 -43 19 -15 4 -37 17 -50 29 -12 12 -31 27 -42 32 -11 6 -29 28 -40 49 -11
22 -28 48 -37 58 -10 10 -18 27 -18 37 0 11 -4 23 -10 26 -11 7 -14 68 -3 78
8 8 8 8 27 1z m8017 -3604 c20 0 42 -7 49 -15 7 -8 16 -12 21 -9 5 3 6 -2 3
-10 -4 -10 -1 -16 8 -16 27 0 178 -80 178 -95 0 -8 8 -19 19 -24 12 -7 21 -27
25 -56 4 -24 13 -50 20 -57 7 -7 15 -21 19 -31 4 -9 16 -21 28 -26 19 -6 20
-9 6 -14 -13 -5 -15 -11 -7 -32 12 -31 3 -57 -19 -53 -10 2 -16 13 -16 28 0
15 -6 25 -14 25 -10 0 -15 -14 -17 -47 -4 -59 37 -132 68 -122 12 3 18 1 16
-8 -2 -9 19 -14 77 -19 73 -5 147 -28 160 -50 3 -4 12 -6 20 -3 7 3 18 -4 24
-15 10 -17 8 -23 -9 -33 -11 -7 -20 -23 -20 -36 0 -19 -3 -21 -19 -12 -26 13
-38 13 -24 -1 8 -8 1 -22 -25 -50 -21 -21 -43 -39 -49 -39 -7 0 -13 -4 -13 -9
0 -5 6 -12 13 -14 6 -3 2 -6 -10 -6 -16 -1 -23 -7 -23 -22 0 -11 5 -17 10 -14
16 10 11 -13 -7 -35 -23 -26 -32 -25 -27 3 3 14 0 11 -10 -10 -8 -17 -25 -37
-38 -44 -13 -6 -27 -18 -31 -25 -4 -8 -16 -14 -26 -14 -9 0 -29 -12 -43 -27
-23 -24 -27 -39 -30 -103 -4 -78 -8 -101 -20 -110 -4 -3 -9 -23 -11 -45 -4
-34 -8 -40 -26 -37 -12 1 -39 -10 -59 -25 -46 -35 -54 -45 -42 -57 18 -18 10
-29 -7 -13 -15 13 -21 13 -36 3 -10 -8 -15 -20 -11 -30 4 -12 0 -16 -16 -16
-12 0 -28 -7 -37 -15 -13 -13 -13 -18 -1 -32 12 -15 10 -16 -15 -9 -28 7 -29
6 -22 -24 4 -19 3 -30 -4 -30 -6 0 -11 7 -11 15 0 18 -14 19 -28 2 -6 -7 -7
-18 -2 -26 8 -14 -3 -42 -26 -67 -5 -6 -24 -15 -41 -18 -25 -6 -31 -4 -36 14
-5 18 -8 19 -31 9 -20 -9 -29 -9 -42 2 -9 7 -41 13 -75 14 -32 0 -63 5 -71 13
-15 15 -28 16 -28 2 0 -5 7 -10 15 -10 8 0 15 -5 15 -11 0 -6 -9 -9 -20 -6
-17 4 -20 2 -15 -14 4 -10 2 -19 -4 -19 -5 0 -17 -8 -27 -17 -9 -10 -36 -25
-58 -33 -29 -11 -42 -22 -44 -38 -2 -12 -9 -22 -16 -22 -23 0 -77 -32 -83 -49
-2 -9 -15 -41 -28 -71 -18 -40 -21 -56 -12 -62 7 -5 1 -8 -15 -8 -21 0 -28 -5
-28 -19 0 -11 -5 -23 -12 -27 -7 -5 -8 -3 -3 6 5 9 4 11 -3 6 -7 -4 -12 -25
-12 -46 0 -41 -15 -59 -33 -41 -8 8 -6 11 6 11 23 0 21 17 -3 30 -14 7 -20 7
-20 0 0 -5 -14 -10 -31 -10 -22 0 -32 -5 -36 -20 -5 -17 -7 -18 -20 -4 -14 13
-17 13 -28 -3 -13 -17 -14 -17 -28 1 -10 14 -16 16 -21 7 -4 -6 -2 -19 6 -28
11 -15 10 -16 -10 -11 -12 4 -20 3 -17 -2 7 -12 -23 -33 -38 -27 -8 3 -21 -7
-31 -24 -10 -16 -21 -27 -26 -24 -5 3 -16 -10 -24 -29 -15 -36 -43 -51 -76
-41 -14 5 -20 2 -20 -9 0 -9 -8 -16 -20 -16 -11 0 -27 -11 -36 -25 -9 -14 -20
-22 -25 -20 -12 8 -84 -33 -84 -48 0 -6 -16 -14 -35 -17 -19 -3 -35 -11 -35
-18 0 -7 -5 -16 -11 -20 -6 -4 -15 -18 -19 -30 -5 -17 -12 -22 -26 -19 -18 5
-37 -14 -37 -36 0 -8 -22 -68 -28 -76 -2 -2 -15 10 -29 25 l-26 29 -20 -25
c-10 -14 -19 -36 -19 -50 -1 -56 -10 -70 -43 -64 -34 5 -43 11 -35 19 3 3 17
1 32 -4 22 -9 26 -8 26 8 0 16 -7 18 -70 13 -48 -3 -70 -1 -70 7 0 6 -13 11
-30 11 -17 0 -30 5 -30 13 0 6 -11 17 -25 24 -15 7 -25 7 -25 1 0 -12 -58 -1
-87 18 -20 12 -24 12 -36 -6 -11 -16 -19 -18 -46 -10 -29 8 -33 6 -43 -16 -7
-15 -18 -23 -27 -20 -61 16 -73 16 -100 -4 -26 -18 -36 -19 -106 -10 -62 8
-83 7 -112 -5 -47 -20 -73 -19 -103 5 -14 11 -33 20 -42 20 -10 0 -18 8 -18
18 -1 16 -1 16 -14 0 -10 -14 -33 -18 -119 -21 -59 -1 -107 0 -107 4 0 10 -84
20 -167 18 -58 0 -73 3 -73 14 0 16 -90 34 -110 22 -5 -3 -15 -3 -22 1 -32 20
-148 7 -148 -16 0 -5 10 -10 23 -10 18 -1 19 -2 6 -10 -33 -19 -66 -5 -118 50
-28 30 -51 58 -51 63 0 13 -20 7 -20 -7 0 -17 -48 -26 -148 -28 -72 -1 -73 -2
-79 -30 -7 -34 -28 -37 -38 -5 -6 19 -8 20 -12 4 -4 -17 -6 -17 -29 -2 -20 13
-31 14 -65 5 -50 -14 -71 -1 -51 30 16 27 15 41 -3 34 -8 -4 -15 -12 -15 -19
0 -8 -9 -11 -24 -8 -13 3 -32 0 -43 -6 -10 -6 -12 -11 -5 -11 6 0 12 -7 12
-15 0 -11 -12 -15 -50 -15 -35 0 -50 -4 -50 -13 0 -8 8 -13 18 -13 9 1 17 -3
17 -9 0 -5 -6 -9 -13 -7 -9 2 -11 -1 -6 -9 5 -9 2 -11 -8 -6 -9 3 -24 -1 -35
-8 -23 -18 -33 -19 -33 -1 0 7 -7 19 -15 26 -8 7 -15 27 -15 45 0 31 -2 33
-35 33 -19 0 -35 -5 -35 -10 0 -6 -6 -6 -14 2 -8 6 -12 18 -9 26 6 17 -40 64
-64 64 -11 0 -14 -6 -9 -23 7 -28 -30 -58 -40 -32 -4 8 -4 22 0 30 3 8 1 15
-3 15 -5 0 -11 -7 -15 -15 -9 -26 -26 -17 -26 14 0 35 13 46 30 26 13 -16 42
-20 53 -8 9 8 -22 43 -39 43 -21 0 -36 39 -40 104 -8 120 -17 143 -85 230 -22
27 -39 59 -39 72 0 13 -4 24 -9 24 -5 0 -12 11 -15 24 -3 13 -19 39 -35 57
-16 19 -38 45 -49 59 -20 24 -20 25 -41 6 -17 -15 -19 -22 -9 -34 11 -13 8
-14 -20 -8 -28 7 -32 5 -32 -13 0 -12 -4 -21 -10 -21 -5 0 -10 -9 -10 -20 0
-17 -4 -19 -26 -14 -31 8 -83 61 -84 86 0 10 -9 22 -20 28 -11 6 -20 16 -20
22 0 7 -13 26 -29 42 -122 129 -192 196 -206 196 -9 0 -14 -4 -11 -9 9 -14 -4
-41 -19 -41 -7 0 -16 -17 -20 -37 -6 -31 -3 -40 14 -54 l21 -17 -21 -37 c-19
-32 -20 -38 -6 -53 13 -16 47 -76 47 -85 0 -2 -6 -4 -14 -4 -8 0 -12 6 -9 13
9 24 -28 49 -76 50 -25 1 -52 -3 -59 -8 -9 -8 -18 -7 -30 4 -22 18 -92 42
-100 33 -4 -3 0 -10 8 -15 12 -8 9 -10 -11 -10 -23 0 -27 -5 -31 -34 -2 -19
-1 -44 3 -55 5 -12 3 -24 -7 -31 -17 -15 -19 -34 -1 -27 8 3 12 -7 13 -29 1
-37 -7 -42 -30 -19 -22 23 -66 20 -66 -4 0 -11 -5 -23 -10 -26 -6 -4 -8 -10
-5 -15 3 -5 1 -11 -5 -15 -5 -3 -10 -15 -10 -26 0 -10 -7 -19 -15 -19 -8 0
-15 -4 -15 -9 0 -5 7 -11 15 -15 21 -8 19 -27 -2 -19 -15 5 -16 3 -5 -8 16
-17 15 -29 -1 -29 -7 0 -19 -16 -26 -35 -7 -19 -18 -35 -25 -35 -8 0 -13 -11
-13 -24 0 -17 4 -23 13 -19 8 3 14 0 14 -6 0 -6 -13 -11 -30 -11 -31 0 -39 17
-18 38 9 9 4 13 -20 18 -18 4 -32 11 -32 15 0 5 -11 7 -25 3 -15 -4 -25 -2
-25 5 0 6 8 11 19 11 15 0 12 6 -16 36 l-34 37 20 21 c28 30 26 46 -4 46 -21
0 -25 -5 -25 -30 0 -31 -6 -36 -29 -21 -11 7 -10 15 8 44 25 40 27 55 6 37
-21 -17 -54 0 -77 40 -9 17 -29 35 -43 42 -28 12 -33 28 -10 28 9 0 15 9 15
25 0 14 -4 25 -10 25 -5 0 -10 -9 -10 -20 0 -14 -11 -22 -37 -29 -49 -14 -53
-14 -53 4 0 8 -7 15 -15 15 -8 0 -15 9 -15 20 0 20 -1 20 -25 4 -14 -9 -25
-23 -25 -31 0 -13 -13 -14 -80 -8 -56 5 -80 4 -80 -4 0 -12 -39 -15 -55 -3 -5
4 -10 14 -10 22 0 8 -6 16 -12 16 -7 1 -20 2 -28 3 -28 2 -15 17 23 28 l37 10
-48 2 c-34 1 -47 5 -44 14 2 6 16 12 30 12 14 0 32 6 38 13 17 16 24 15 44 -5
14 -14 18 -14 26 -2 7 9 7 4 3 -16 -4 -16 -12 -33 -18 -37 -7 -4 -4 -9 7 -13
9 -4 23 0 32 9 9 9 26 16 37 16 14 0 18 5 15 15 -4 8 -2 17 3 20 6 4 10 18 9
33 0 15 -3 22 -5 15 -3 -7 -18 -10 -38 -6 -19 3 -36 1 -40 -5 -4 -7 -15 -6
-34 4 -37 19 -59 19 -42 -1 14 -17 7 -19 -20 -5 -22 12 -16 44 6 36 7 -3 16
-1 19 4 4 6 1 10 -4 10 -6 0 -11 6 -11 14 0 8 -5 16 -12 18 -7 3 -8 10 -4 17
6 10 10 10 16 2 3 -7 14 -9 23 -5 23 9 11 24 -19 24 -13 0 -24 5 -24 11 0 5
-5 7 -11 3 -8 -5 -10 1 -7 20 5 24 3 27 -16 24 -20 -4 -23 0 -25 34 -1 22 3
38 9 38 6 0 8 5 5 10 -3 6 -1 10 5 10 6 0 8 5 5 10 -3 6 -1 10 4 10 6 0 11 -4
11 -10 0 -5 10 -10 23 -10 17 0 19 2 7 10 -8 5 -11 12 -7 16 4 4 2 13 -4 20
-13 16 -24 12 126 47 61 15 139 26 175 26 36 0 77 4 92 10 22 8 27 7 30 -5 2
-13 7 -13 30 5 15 12 29 17 33 12 3 -6 12 -8 20 -4 10 3 15 -1 15 -15 0 -14 8
-21 31 -24 25 -4 30 -2 26 13 -3 11 4 22 21 30 14 8 37 24 51 37 19 17 32 21
53 17 17 -4 28 -2 28 4 0 6 -11 11 -24 11 -15 0 -26 7 -28 18 -3 13 7 20 37
27 33 8 40 14 38 33 -2 12 2 22 8 22 12 0 39 25 39 36 0 3 -7 1 -16 -7 -13
-10 -19 -8 -40 14 -28 30 -30 45 -8 54 8 3 13 11 11 17 -3 8 21 12 77 14 57 2
84 7 92 17 16 21 126 21 118 1 -3 -8 -18 -20 -32 -26 -27 -10 -27 -10 3 -3 17
3 40 6 52 6 13 -1 23 7 26 18 4 14 14 19 42 19 22 0 34 -4 30 -10 -4 -6 -10
-8 -15 -5 -5 3 -18 -3 -29 -14 -22 -22 -15 -36 9 -20 8 5 24 9 34 9 11 0 27 7
37 16 19 17 39 11 39 -12 0 -8 5 -12 10 -9 6 3 10 15 10 26 0 10 5 19 10 19 6
0 10 -9 10 -20 0 -11 5 -20 10 -20 14 0 12 30 -4 62 -18 34 -11 41 25 22 27
-14 29 -13 35 11 8 31 18 24 19 -12 0 -15 6 -28 14 -31 10 -3 12 2 8 21 -5 18
-2 26 11 31 9 3 25 11 34 18 14 10 20 10 30 0 11 -11 10 -16 -5 -27 -24 -18
-6 -28 35 -20 18 3 54 2 79 -4 54 -12 99 3 99 33 0 18 1 18 18 3 39 -35 110
-31 150 10 7 7 27 13 43 13 20 0 28 4 23 12 -5 7 -3 8 7 2 22 -13 192 -14 202
-1 6 9 10 9 14 0 6 -16 43 -17 43 -2 0 6 6 17 14 25 18 17 113 19 118 2 3 -7
10 -8 17 -4 11 7 11 10 0 17 -19 12 -5 21 38 25 28 3 34 2 23 -6 -10 -7 19
-10 97 -10 86 0 114 3 120 14 5 9 32 16 68 19 33 3 89 10 125 16 143 24 233
27 287 12 43 -12 107 1 203 41 79 34 123 43 193 39 29 -1 38 -27 12 -37 -8 -4
-15 -14 -15 -24 0 -13 6 -16 26 -12 14 2 36 -1 49 -8 25 -13 92 -9 140 8 17 7
56 19 88 27 44 12 60 21 67 40 7 17 18 25 42 27 18 2 34 9 34 16 1 6 2 16 3
22 1 12 57 41 64 34 3 -4 16 1 29 10 12 9 31 16 41 16 10 0 38 11 63 25 24 13
74 29 110 35 37 6 75 15 84 20 27 14 342 25 365 12 45 -24 247 -32 299 -12 20
7 32 8 40 0 5 -5 19 -10 31 -10 19 1 19 1 3 14 -10 7 -18 15 -18 18 0 3 31 5
70 4 70 0 96 8 71 23 -9 6 5 13 40 21 30 7 64 18 76 26 15 10 23 10 25 2 6
-18 56 -1 80 27 12 14 29 25 39 25 10 0 24 6 31 13 7 7 32 14 56 15 25 2 57
13 79 27 19 14 47 25 60 25 30 0 83 27 83 41 0 8 4 8 14 0 11 -10 20 -5 41 23
16 22 42 40 64 47 27 8 43 22 65 58 32 55 59 73 134 92 28 7 52 17 52 22 0 5
9 7 20 4 10 -3 25 2 31 10 7 8 21 12 33 9 11 -3 26 0 33 6 10 8 19 6 34 -8 17
-16 22 -16 29 -4 6 8 10 20 10 27 0 17 43 39 47 26 4 -12 73 5 73 17 0 4 15 5
33 3 17 -2 48 -3 68 -3z m-6598 -1902 c4 -10 8 -9 16 2 7 10 11 11 11 3 0 -7
7 -13 15 -13 8 0 15 -4 15 -10 0 -5 -7 -10 -16 -10 -9 0 -18 -10 -22 -22 l-5
-22 -8 22 c-5 12 -12 22 -18 22 -15 0 -19 -38 -7 -62 16 -31 26 -68 18 -68 -4
0 -15 18 -25 39 -14 32 -22 38 -40 34 l-22 -4 23 13 c43 26 -10 39 -61 16 -21
-10 -27 -19 -25 -38 2 -15 9 -24 16 -22 8 1 11 -2 7 -8 -3 -5 2 -10 12 -10 17
-1 17 -2 -2 -16 -15 -11 -17 -18 -9 -32 9 -13 8 -21 -2 -30 -12 -11 -14 -7
-14 22 0 47 -9 66 -30 66 -21 0 -30 -19 -30 -66 0 -19 -5 -34 -11 -34 -8 0 -9
14 -5 44 6 36 4 45 -10 50 -14 5 -15 9 -4 19 10 9 13 9 17 -1 7 -19 23 -3 23
24 0 13 6 24 13 24 7 0 24 10 37 22 17 16 36 22 72 22 40 0 48 3 48 18 0 21
16 24 23 6z m7781 -1063 c11 -21 27 -35 38 -35 22 0 22 -3 3 -39 -8 -16 -23
-31 -35 -34 -26 -7 -26 -27 0 -34 11 -3 20 -11 20 -18 0 -7 7 -18 15 -25 22
-18 10 -69 -23 -99 -24 -22 -25 -23 -4 -17 31 10 28 -12 -4 -26 -16 -8 -24
-18 -21 -29 3 -11 -4 -22 -19 -30 -13 -7 -22 -14 -19 -17 2 -3 -4 -17 -15 -32
-11 -16 -20 -42 -20 -59 0 -27 -6 -34 -49 -56 -27 -13 -52 -29 -56 -34 -3 -6
-27 -13 -53 -17 -26 -4 -64 -13 -85 -20 -34 -12 -41 -11 -73 6 -19 11 -43 20
-53 20 -30 0 -81 75 -91 135 -4 26 -9 30 -38 31 -47 1 -59 17 -28 37 23 15 24
19 11 43 -7 14 -22 34 -34 45 -26 25 -27 39 -2 46 30 8 33 40 4 58 -13 9 -31
14 -38 11 -8 -3 -17 -1 -21 5 -3 6 -19 7 -35 4 -16 -4 -29 -4 -29 -2 0 10 77
87 87 87 5 0 22 11 38 24 56 48 302 95 540 103 l71 3 18 -35z m-16264 -464 c0
-9 -5 -22 -10 -27 -7 -7 -2 -18 15 -34 14 -13 25 -30 25 -38 0 -8 17 -36 38
-61 20 -25 37 -50 37 -55 0 -6 14 -13 30 -16 17 -4 44 -14 60 -23 27 -14 27
-16 8 -17 -12 0 -25 5 -28 10 -13 20 -27 10 -21 -15 4 -16 2 -25 -6 -25 -19 0
-48 32 -48 54 -1 35 -25 58 -53 51 -15 -4 -38 0 -57 10 -17 9 -34 14 -38 11
-3 -3 -11 -1 -19 5 -9 8 -17 8 -26 1 -10 -9 -17 -6 -30 8 -9 11 -25 20 -35 20
-22 0 -57 35 -48 48 8 14 -21 35 -39 28 -8 -3 -15 -1 -15 3 0 13 25 20 49 14
12 -3 21 -13 21 -22 0 -14 2 -14 10 -1 14 22 12 30 -12 41 -22 9 -22 9 2 4 14
-3 37 -8 53 -11 17 -4 27 -2 27 5 0 6 11 11 25 11 14 0 25 6 25 13 0 21 20 35
41 30 10 -3 19 -13 19 -22z m-704 -48 c-7 -19 11 -25 32 -12 13 8 24 9 37 2
16 -9 16 -11 -4 -30 -12 -11 -19 -27 -16 -35 4 -10 -1 -17 -16 -21 -24 -7 -43
3 -21 10 6 3 12 12 12 21 -1 15 -2 15 -14 0 -7 -10 -21 -18 -31 -18 -15 0 -16
-2 -4 -17 12 -15 12 -16 -3 -10 -11 4 -15 2 -13 -6 5 -13 -41 -49 -87 -69 -16
-7 -28 -20 -28 -31 0 -10 -9 -30 -19 -43 -15 -19 -20 -21 -25 -9 -3 9 0 15 9
15 8 0 15 8 15 18 0 14 -2 14 -9 3 -8 -13 -12 -13 -27 0 -15 12 -16 12 -10 -9
6 -17 3 -22 -9 -22 -13 0 -16 6 -12 21 4 13 0 22 -11 26 -9 4 -27 18 -39 32
-18 20 -31 25 -72 25 -27 0 -47 4 -45 8 3 5 1 14 -4 21 -15 19 -10 43 11 57
17 10 19 10 14 -4 -5 -12 -2 -14 17 -6 12 4 50 5 83 1 33 -4 65 -5 72 -3 18 6
-17 42 -41 42 -18 0 -25 15 -10 24 13 8 52 -5 46 -15 -3 -5 -1 -9 5 -9 5 0 13
5 16 11 4 6 14 8 22 5 8 -3 21 1 29 9 9 8 27 15 42 15 15 0 33 4 40 9 21 13
73 8 68 -6z m13511 -286 c3 -4 22 -7 40 -7 19 0 73 -9 119 -21 75 -18 93 -19
150 -10 84 15 126 7 153 -29 26 -35 27 -57 4 -63 -10 -3 -1 -5 20 -6 30 -1 37
-5 35 -18 -3 -20 29 -30 45 -14 7 7 6 15 -2 25 -10 12 -9 13 10 9 15 -4 26 0
35 12 10 14 20 16 51 10 31 -6 35 -9 18 -15 -11 -4 -21 -4 -23 1 -10 25 -112
-90 -112 -125 0 -10 -9 -16 -22 -16 -19 0 -20 2 -8 10 9 6 10 10 3 10 -6 0
-15 -5 -18 -10 -3 -6 -17 -8 -31 -5 -13 3 -35 7 -49 10 -20 4 -25 11 -25 36 0
30 -2 31 -35 27 -24 -3 -35 0 -35 9 0 16 -26 17 -35 3 -4 -6 -2 -17 4 -24 14
-17 -1 -31 -43 -42 l-30 -7 22 37 c12 20 22 43 22 50 0 19 -37 50 -45 37 -8
-14 -25 -14 -25 -1 0 6 7 10 15 10 8 0 15 7 15 15 0 12 -10 16 -42 15 -24 -1
-70 1 -103 3 -54 4 -64 9 -102 45 -23 22 -40 42 -38 44 6 6 54 2 62 -5z
m-3303 -210 c-6 -32 -6 -32 14 -14 25 23 42 15 42 -19 0 -21 -5 -24 -35 -24
-19 0 -35 -4 -35 -10 0 -5 8 -7 18 -3 13 5 12 1 -6 -19 -13 -14 -22 -29 -20
-34 2 -5 -1 -9 -7 -9 -5 0 -9 10 -7 21 1 12 -3 26 -10 31 -13 10 -62 22 -105
26 -13 1 -23 8 -23 15 0 6 -6 12 -12 12 -7 0 -22 3 -34 6 -13 3 -28 -1 -38
-11 -9 -10 -20 -14 -24 -11 -3 4 0 11 7 15 7 5 11 13 8 18 -4 6 8 11 26 12 18
1 77 10 132 19 55 10 104 16 108 14 5 -2 5 -18 1 -35z m-7644 3 c0 -5 5 -10
10 -10 6 0 32 -14 58 -32 41 -27 48 -36 48 -64 0 -26 -5 -34 -23 -39 -14 -3
-20 -10 -17 -19 7 -18 -32 -45 -57 -39 -15 4 -18 2 -13 -11 5 -12 -2 -18 -26
-22 -21 -5 -28 -10 -21 -17 5 -5 18 -6 28 -2 10 5 29 9 43 11 22 2 21 0 -7
-12 -18 -8 -33 -18 -33 -23 0 -13 -139 -18 -145 -6 -3 6 -7 5 -11 -2 -3 -7
-13 -13 -21 -13 -12 0 -13 3 -3 15 14 17 5 36 -14 29 -14 -5 -26 19 -32 65 -2
13 6 38 18 54 l21 29 18 -23 c20 -26 30 -22 34 15 5 39 13 45 56 43 36 -1 40
-3 34 -24 -4 -19 -1 -23 20 -23 16 0 25 -6 25 -15 0 -8 7 -15 16 -15 12 0 15
6 10 27 -5 16 -3 29 4 33 8 5 5 14 -11 29 -19 17 -20 21 -6 21 9 0 17 5 17 11
0 5 -4 8 -9 4 -6 -3 -15 4 -21 15 -7 13 -7 20 0 20 5 0 10 -4 10 -10z"/>
<path d="M9652 8263 c-6 -27 -13 -70 -16 -97 -7 -55 -66 -155 -97 -163 -23 -6
-30 -26 -23 -62 6 -26 10 -29 58 -34 30 -3 53 -1 55 5 2 6 25 35 52 64 29 32
49 64 49 77 0 13 5 28 12 35 9 9 9 18 -1 38 -10 22 -9 30 5 46 27 29 22 74
-11 108 -16 17 -39 30 -51 30 -18 0 -24 -8 -32 -47z"/>
<path d="M9710 7950 c-12 -16 -19 -30 -16 -30 10 0 -22 -69 -39 -86 -8 -9 -15
-24 -15 -34 0 -10 -4 -20 -9 -22 -6 -1 -13 -39 -16 -82 -3 -44 -8 -83 -11 -87
-2 -4 6 -16 19 -26 13 -10 30 -30 37 -43 7 -14 19 -29 26 -33 8 -4 21 -22 30
-38 13 -26 14 -41 3 -107 -7 -42 -12 -87 -12 -99 1 -13 -5 -23 -12 -23 -7 0
-15 -8 -17 -18 -7 -24 11 -156 21 -160 34 -12 42 -28 30 -62 -7 -19 -18 -42
-25 -50 -20 -23 -7 -96 21 -114 33 -22 38 -53 10 -60 -13 -3 -28 -19 -35 -37
-12 -28 -11 -32 4 -41 11 -6 15 -16 11 -29 -5 -14 -1 -25 11 -33 17 -13 17
-15 1 -47 l-17 -34 37 -33 c40 -35 44 -50 49 -171 2 -78 12 -94 50 -85 15 4
23 -1 32 -20 6 -14 9 -32 6 -40 -3 -7 9 -25 26 -40 20 -16 26 -26 16 -26 -8 0
-19 7 -24 16 -7 13 -10 9 -14 -20 -3 -23 1 -40 8 -44 9 -5 5 -11 -12 -19 -21
-10 -24 -9 -22 5 2 9 -5 18 -15 20 -13 3 -18 -1 -16 -15 2 -10 0 -23 -4 -30
-4 -6 -3 -14 3 -18 5 -3 10 -22 10 -41 0 -27 4 -34 20 -34 13 0 20 -7 20 -20
0 -26 16 -26 23 0 3 12 26 29 59 43 30 14 58 32 61 41 4 9 14 16 24 16 16 0
43 39 43 62 0 13 -27 9 -42 -5 -15 -15 -58 -29 -58 -18 0 4 25 18 55 31 30 13
58 33 61 43 3 10 25 27 48 37 35 15 47 28 70 74 17 34 54 82 92 119 51 50 64
68 64 93 0 17 7 37 15 44 21 18 19 35 -11 80 l-27 40 37 47 c25 32 34 52 29
63 -4 8 -8 38 -8 65 0 28 -9 65 -19 84 -13 25 -15 39 -8 55 46 101 50 142 16
187 -13 18 -24 38 -24 43 -1 6 -15 20 -32 31 -38 24 -66 70 -67 109 -1 30 -46
106 -63 106 -4 0 -15 15 -24 33 -9 18 -28 40 -42 50 -15 9 -42 28 -61 42 -21
16 -42 23 -53 19 -10 -3 -33 4 -52 15 -18 12 -43 21 -55 21 -11 0 -21 6 -21
13 0 8 -11 23 -24 36 -19 17 -23 32 -23 74 0 30 -7 67 -17 85 -10 19 -16 44
-14 56 3 26 -17 56 -37 56 -8 0 -22 11 -33 25 -11 14 -22 25 -25 25 -3 0 -15
-13 -27 -30z"/>
<path d="M9898 7873 c-22 -6 -23 -17 -1 -49 10 -17 16 -45 15 -77 -1 -55 24
-97 57 -97 9 0 25 -7 35 -15 11 -8 28 -13 37 -10 29 10 189 -102 189 -131 0
-10 13 -14 45 -14 33 0 47 -5 54 -19 14 -25 89 -33 148 -15 25 8 62 13 83 12
20 0 42 2 49 7 7 4 23 2 34 -4 38 -19 81 -34 103 -36 12 -1 28 -4 37 -8 23 -9
31 23 10 39 -10 7 -28 10 -40 7 -14 -3 -23 -1 -23 6 0 6 -17 19 -37 29 -33 15
-38 21 -35 49 2 17 -2 34 -7 38 -6 3 -11 14 -11 24 0 26 -41 36 -57 14 -11
-15 -13 -13 -13 13 0 26 -6 33 -40 48 -29 13 -52 16 -81 11 -24 -4 -52 -2 -69
5 -23 10 -33 9 -54 -5 -14 -10 -33 -14 -42 -11 -8 3 -23 2 -33 -4 -29 -15 -57
-1 -78 38 -20 40 -59 60 -89 47 -32 -14 -104 7 -104 30 0 22 -64 83 -82 78z"/>
<path d="M9476 7835 c-11 -8 -32 -15 -46 -15 -36 0 -43 -10 -24 -31 15 -16 14
-19 -10 -40 -14 -12 -26 -26 -26 -29 0 -12 78 -62 87 -57 5 3 9 -16 8 -44 -1
-51 4 -59 25 -34 7 8 18 15 25 15 11 0 45 41 45 55 0 3 -8 5 -17 5 -12 0 -14
3 -7 8 20 13 27 67 10 81 -8 7 -18 33 -22 57 -7 47 -17 53 -48 29z"/>
<path d="M9326 7711 c-15 -17 -16 -23 -6 -36 7 -8 9 -22 5 -32 -8 -20 -11 -29
-20 -85 -6 -34 -4 -39 18 -47 26 -10 41 -38 33 -62 -17 -46 -14 -99 6 -124 18
-23 22 -25 30 -11 5 9 16 16 23 16 8 0 15 7 15 16 0 11 -6 14 -22 8 -19 -6
-21 -4 -12 7 6 8 14 28 17 44 3 17 10 48 16 70 5 22 12 66 16 97 5 53 4 57
-26 82 -17 14 -35 26 -39 26 -5 0 -15 11 -23 25 l-13 26 -18 -20z"/>
<path d="M9533 7570 c-40 -19 -50 -48 -19 -56 23 -5 46 -51 46 -91 0 -12 8
-23 18 -26 11 -2 22 -17 25 -36 8 -38 25 -39 59 -3 53 57 45 83 -56 185 -41
42 -41 42 -73 27z"/>
<path d="M9484 7484 c3 -9 -3 -27 -14 -41 -23 -30 -25 -51 -8 -89 11 -24 10
-28 -16 -49 l-28 -22 31 -13 c17 -7 31 -17 31 -22 0 -6 -11 -3 -25 6 -29 19
-39 20 -29 4 5 -7 7 -27 5 -45 -2 -32 20 -79 32 -66 4 3 7 1 7 -5 0 -7 -4 -12
-9 -12 -5 0 -7 -9 -4 -20 8 -31 28 -18 31 21 2 19 8 40 14 47 8 9 6 18 -7 32
-16 17 -16 20 -2 20 9 0 18 -9 22 -20 5 -16 9 -18 26 -7 27 17 24 24 -16 31
-19 4 -35 11 -35 16 0 9 52 6 69 -4 5 -3 14 1 21 9 7 8 16 12 21 9 5 -3 14 7
19 21 13 34 13 32 -10 38 -14 3 -20 14 -20 31 0 19 -7 29 -26 36 -14 6 -22 15
-19 20 11 18 -28 89 -49 90 -12 0 -16 -5 -12 -16z"/>
<path d="M9316 7228 c-17 -51 -45 -173 -49 -212 -2 -17 5 -20 50 -23 61 -3 77
11 43 39 -18 14 -20 22 -12 30 9 9 12 8 12 -3 0 -13 49 -46 54 -37 1 2 7 11
14 20 11 13 11 25 1 60 -7 24 -14 44 -15 46 -7 10 -53 -33 -57 -51 -4 -18 -5
-17 -6 5 -1 18 6 32 19 40 24 15 27 69 5 92 -8 8 -15 22 -15 30 0 35 -27 13
-44 -36z"/>
<path d="M9578 7204 c-58 -45 -62 -52 -58 -88 1 -10 -9 -29 -21 -42 -12 -13
-19 -24 -14 -24 4 0 1 -8 -7 -17 -28 -33 -27 -40 4 -74 17 -19 32 -29 35 -24
23 56 41 80 59 83 12 2 26 14 32 28 7 14 20 24 32 24 19 0 28 24 12 34 -5 3
-7 37 -6 75 0 39 -2 71 -5 71 -3 0 -32 -21 -63 -46z"/>
<path d="M9620 7019 c-15 -17 -33 -29 -38 -25 -6 3 -14 2 -17 -4 -11 -18 -9
-104 3 -127 7 -12 12 -33 12 -48 0 -15 7 -28 18 -32 9 -3 24 -14 32 -25 15
-18 17 -18 48 16 l32 35 -22 15 c-18 13 -21 24 -19 73 1 32 6 62 10 68 5 5 11
22 14 36 5 21 2 28 -19 38 -22 10 -28 8 -54 -20z"/>
<path d="M9390 6980 c-8 -5 -30 -10 -47 -10 -25 0 -43 -10 -73 -39 -22 -21
-40 -43 -40 -49 0 -6 -6 -13 -12 -16 -10 -3 -9 -8 4 -18 9 -8 16 -25 17 -38 0
-14 3 -39 6 -57 6 -26 2 -39 -23 -70 -31 -40 -55 -99 -46 -114 16 -27 62 3
129 84 17 20 36 37 43 37 7 0 16 10 21 23 10 25 54 60 90 72 19 6 22 12 18 35
-3 15 -1 32 4 37 8 8 7 13 0 17 -6 4 -11 16 -11 27 0 10 -7 19 -15 19 -9 0
-15 9 -15 23 0 21 -16 47 -29 47 -4 0 -13 -5 -21 -10z"/>
</g>
</svg>
